<?xml version="1.0" encoding="utf-8"?>
<!-- Generator: Adobe Illustrator 21.0.0, SVG Export Plug-In . SVG Version: 6.00 Build 0)  -->
<svg version="1.1" xmlns="http://www.w3.org/2000/svg" xmlns:xlink="http://www.w3.org/1999/xlink" x="0px" y="0px"
	 viewBox="0 0 500 500" style="enable-background:new 0 0 500 500;" xml:space="preserve">
<style type="text/css">
	.st0{fill:#FFFFFF;}
	.st1{fill:#FBEFE5;}
	.st2{fill:#F7E0CC;}
	.st3{fill:#5EAAA8;}
	.st4{opacity:0.1;}
	.st5{fill:#F0C419;}
	.st6{fill:#DB6400;}
	.st7{fill:#DADADA;}
	.st8{fill:#28384F;}
	.st9{fill:#33AEFF;}
	.st10{fill:#D36BC5;}
	.st11{fill:#E2413E;}
	.st12{fill:#C2C2C2;}
</style>
<g id="Background">
	<rect class="st0" width="500" height="500"/>
</g>
<g id="Objects">
	<g>
		<path class="st1" d="M381.4,134.3H262.7c-4.6,0-8.2-3.7-8.2-8.3c0-4.6,3.7-8.2,8.2-8.2h17.4c11.8,0,21.4-9.6,21.4-21.4v0
			c0-11.8-9.6-21.4-21.4-21.4H134.2c-11.8,0-21.4,9.6-21.4,21.4v0c0,11.8,9.6,21.4,21.4,21.4h61.6c4.6,0,8.2,3.7,8.2,8.2
			c0,4.6-3.7,8.3-8.2,8.3h-16.8c-14.2,0-25.8,11.5-25.8,25.8l0,0c0,14.2,11.5,25.8,25.8,25.8h108.5c4.6,0,8.2,3.7,8.2,8.2
			c0,4.4-3.5,8.1-7.9,8.2H116.1c-12.9,0-23.3,10.4-23.3,23.3l0,0c0,12.9,10.4,23.3,23.3,23.3H167c4.6,0,8.2,3.7,8.2,8.2
			c0,4.1-3.1,7.6-7,8.1H160c-12.9,0-23.3,10.4-23.3,23.3c0,12.9,10.4,23.3,23.3,23.3h163.4c12.9,0,23.3-10.4,23.3-23.3
			c0-12.9-10.4-23.3-23.3-23.3h-14.2c-4-0.6-7-4-7-8.1c0-4.6,3.7-8.2,8.2-8.2h50.7c12.9,0,23.3-10.4,23.3-23.3l0,0
			c0-12.9-10.4-23.3-23.3-23.3h-7c-4.4-0.2-7.9-3.8-7.9-8.2c0-4.6,3.7-8.2,8.2-8.2h27c14.2,0,25.8-11.5,25.8-25.8l0,0
			C407.2,145.8,395.6,134.3,381.4,134.3z M251.8,257.2c0,4.1-3.1,7.6-7,8.1h-12.2c-4-0.6-7-4-7-8.1c0-4.6,3.7-8.2,8.2-8.2h9.7
			C248.1,248.9,251.8,252.6,251.8,257.2z"/>
		<path class="st2" d="M328,330.5H172c-4.1,0-7.5-3.4-7.5-7.5v0c0-4.1,3.4-7.5,7.5-7.5h156c4.1,0,7.5,3.4,7.5,7.5v0
			C335.5,327.1,332.1,330.5,328,330.5z"/>
		<path class="st2" d="M145.6,330.5h-18.2c-4.1,0-7.5-3.4-7.5-7.5v0c0-4.1,3.4-7.5,7.5-7.5h18.2c4.1,0,7.5,3.4,7.5,7.5v0
			C153.1,327.1,149.7,330.5,145.6,330.5z"/>
		<path class="st2" d="M350.9,330.5h0.5c-4.1,0-7.5-3.4-7.5-7.5v0c0-4.1,3.4-7.5,7.5-7.5h-0.5c4.1,0,7.5,3.4,7.5,7.5v0
			C358.4,327.1,355,330.5,350.9,330.5z"/>
		<g>
			<g>
				<path class="st3" d="M242.2,211.1l-8.1-0.1l-0.1,14.3l-19.7-0.1l0.1-14.3l-29.5-0.2l0.1-14.7l31-44.8l18.5,0.1l-0.3,44.7
					l8.1,0.1L242.2,211.1z M214.4,196l0.1-8.6c0-1.6,0.1-3.8,0.2-6.5c0.1-2.7,0.2-4.2,0.3-4.3l-0.6,0c-1.2,2.6-2.5,5-3.9,7.3
					l-8.3,12.1L214.4,196z"/>
			</g>
			<path class="st4" d="M234.1,211.1l8.1,0.1l0.1-14.9l-8.1-0.1l0.1-14.7c-0.9,0.8-1.8,1.6-2.6,2.6c-4.8,5.8-7.8,15.2-8.8,28.3
				c-0.4,4.7-0.4,9,0,12.9l11.1,0.1L234.1,211.1z"/>
			<g>
				<path class="st5" d="M281,216.6c-1,13-3.9,22.4-8.8,28.2c-4.8,5.7-11.8,8.2-20.8,7.5c-8.8-0.7-15.2-4.4-19.2-11
					c-4-6.7-5.5-16.3-4.5-28.8c1-13.1,3.9-22.6,8.8-28.3c4.8-5.8,11.8-8.3,20.8-7.6c8.8,0.7,15.2,4.4,19.2,11.1
					C280.4,194.3,281.9,204,281,216.6z M247.5,214c-0.6,8.3-0.6,14.1,0.2,17.3c0.8,3.2,2.4,4.9,4.9,5.1c2.5,0.2,4.4-1.3,5.6-4.4
					c1.3-3.1,2.2-8.8,2.9-16.9c0.6-8.2,0.6-13.9-0.2-17.3c-0.8-3.4-2.4-5.1-4.9-5.3c-2.5-0.2-4.3,1.3-5.6,4.3
					C249.2,199.8,248.2,205.6,247.5,214z"/>
			</g>
			<path class="st4" d="M276.4,187.6c-1.3-2.2-2.8-4-4.6-5.6l-8.2,15.9l1.8,14.6l15.8-2C281.4,200.8,279.8,193.2,276.4,187.6z"/>
			<g>
				<path class="st6" d="M325.9,202l-8.1,1l1.8,14.2l-19.6,2.5l-1.8-14.2l-29.3,3.7l-1.8-14.6l24.9-48.4l18.3-2.3l5.6,44.4l8.1-1
					L325.9,202z M296.4,190.7l-1.1-8.5c-0.2-1.6-0.4-3.8-0.6-6.5c-0.2-2.7-0.3-4.2-0.3-4.3l-0.6,0.1c-0.8,2.7-1.8,5.3-3,7.7
					l-6.6,13.1L296.4,190.7z"/>
			</g>
			<g>
				<g>
					<path class="st7" d="M320.7,266.8H190.8l-15.1-102.7h163.9L320.7,266.8z M197.2,259.5h117.4l16.3-88H184.2L197.2,259.5z"/>
				</g>
				<g>
					<rect x="185.1" y="194.4" class="st7" width="145" height="4"/>
				</g>
				<g>
					<rect x="191.1" y="232.8" class="st7" width="133" height="4"/>
				</g>
				<g>
					<rect x="255.6" y="167.8" class="st7" width="4" height="95.4"/>
				</g>
				<g>
					<g>
						
							<rect x="213.7" y="167.5" transform="matrix(0.9947 -0.1033 0.1033 0.9947 -21.1016 23.429)" class="st7" width="4" height="95.9"/>
					</g>
					<g>
						
							<rect x="250.5" y="213.5" transform="matrix(0.1221 -0.9925 0.9925 0.1221 48.2928 485.508)" class="st7" width="96.1" height="4"/>
					</g>
				</g>
				<g>
					<polygon class="st7" points="177.4,173.9 159.9,156.5 136.7,156.5 136.7,144 165,144 186.2,165.1 					"/>
				</g>
				<g>
					<path class="st7" d="M312.2,301.4H193.5c-13,0-23.6-10.6-23.6-23.6s10.6-23.6,23.6-23.6h0.5v12.5h-0.5c-6.1,0-11.1,5-11.1,11.1
						c0,6.1,5,11.1,11.1,11.1h118.7V301.4z"/>
				</g>
				<g>
					<path class="st6" d="M151.5,156.5H129c-3.4,0-6.2-2.8-6.2-6.2c0-3.4,2.8-6.2,6.2-6.2h22.5c3.4,0,6.2,2.8,6.2,6.2
						C157.7,153.7,154.9,156.5,151.5,156.5z"/>
				</g>
				<g>
					<circle class="st8" cx="309.8" cy="300.9" r="22.1"/>
				</g>
				<g>
					<circle class="st0" cx="309.8" cy="300.9" r="11.1"/>
				</g>
				<g>
					<circle class="st8" cx="193.7" cy="300.9" r="22.1"/>
				</g>
				<g>
					<circle class="st0" cx="193.7" cy="300.9" r="11.1"/>
				</g>
			</g>
			<g>
				<circle class="st5" cx="193.9" cy="106" r="2.8"/>
			</g>
			<g>
				<circle class="st9" cx="265.8" cy="153.7" r="3.5"/>
			</g>
			<g>
				<circle class="st3" cx="357.8" cy="137.1" r="2.8"/>
			</g>
			<g>
				<circle class="st5" cx="201.6" cy="222.3" r="2.8"/>
			</g>
			<g>
				<circle class="st10" cx="264.7" cy="69.6" r="2.8"/>
			</g>
			<g>
				<circle class="st11" cx="380.8" cy="185.8" r="2.8"/>
			</g>
			<g>
				<circle class="st3" cx="272.7" cy="283" r="2.8"/>
			</g>
			<g>
				<circle class="st6" cx="119.2" cy="120.6" r="2.8"/>
			</g>
			<g>
				<circle class="st3" cx="151.3" cy="175" r="3.8"/>
			</g>
			<g>
				<circle class="st11" cx="281.8" cy="86.2" r="1.8"/>
			</g>
			<g>
				<circle class="st10" cx="191.1" cy="157.2" r="1.8"/>
			</g>
			<g>
				<circle class="st9" cx="348.4" cy="198.6" r="2.2"/>
			</g>
			<g>
				<circle class="st6" cx="235.1" cy="276" r="2.2"/>
			</g>
			<g>
				<path class="st8" d="M204.2,75.6h-1.3v-1.3c0-0.9-0.7-1.6-1.6-1.6c-0.9,0-1.6,0.7-1.6,1.6v1.3h-1.3c-0.9,0-1.6,0.7-1.6,1.6
					c0,0.9,0.7,1.6,1.6,1.6h1.3v1.3c0,0.9,0.7,1.6,1.6,1.6c0.9,0,1.6-0.7,1.6-1.6v-1.3h1.3c0.9,0,1.6-0.7,1.6-1.6
					C205.8,76.3,205.1,75.6,204.2,75.6z"/>
			</g>
			<g>
				<path class="st8" d="M344.6,233.2h-1.3v-1.3c0-0.9-0.7-1.6-1.6-1.6c-0.9,0-1.6,0.7-1.6,1.6v1.3h-1.3c-0.9,0-1.6,0.7-1.6,1.6
					c0,0.9,0.7,1.6,1.6,1.6h1.3v1.3c0,0.9,0.7,1.6,1.6,1.6c0.9,0,1.6-0.7,1.6-1.6v-1.3h1.3c0.9,0,1.6-0.7,1.6-1.6
					C346.2,233.9,345.5,233.2,344.6,233.2z"/>
			</g>
			<g>
				<path class="st8" d="M349.1,104.4h-1.3v-1.3c0-0.9-0.7-1.6-1.6-1.6c-0.9,0-1.6,0.7-1.6,1.6v1.3h-1.3c-0.9,0-1.6,0.7-1.6,1.6
					c0,0.9,0.7,1.6,1.6,1.6h1.3v1.3c0,0.9,0.7,1.6,1.6,1.6c0.9,0,1.6-0.7,1.6-1.6v-1.3h1.3c0.9,0,1.6-0.7,1.6-1.6
					C350.7,105.1,350,104.4,349.1,104.4z"/>
			</g>
			<g>
				<path class="st8" d="M164.9,209.4h-1.3V208c0-0.9-0.7-1.6-1.6-1.6c-0.9,0-1.6,0.7-1.6,1.6v1.3h-1.3c-0.9,0-1.6,0.7-1.6,1.6
					c0,0.9,0.7,1.6,1.6,1.6h1.3v1.3c0,0.9,0.7,1.6,1.6,1.6c0.9,0,1.6-0.7,1.6-1.6v-1.3h1.3c0.9,0,1.6-0.7,1.6-1.6
					C166.5,210.1,165.8,209.4,164.9,209.4z"/>
			</g>
			<g>
				<path class="st10" d="M162.1,121.1c-0.6,0-1.1-0.2-1.6-0.5l-9.1-6c-1.4-0.9-1.8-2.8-0.9-4.2c0.9-1.4,2.8-1.8,4.2-0.9l9.1,6
					c1.4,0.9,1.8,2.8,0.9,4.2C164,120.6,163,121.1,162.1,121.1z"/>
			</g>
			<g>
				<path class="st3" d="M320,94.9c-0.6,0-1.2-0.2-1.7-0.5c-1.4-1-1.7-2.8-0.7-4.2l8.1-11.5c1-1.4,2.8-1.7,4.2-0.7
					c1.4,1,1.7,2.8,0.7,4.2l-8.1,11.5C321.9,94.5,321,94.9,320,94.9z"/>
			</g>
			<g>
				<path class="st6" d="M374.5,156.7c-1.3,0-2.5-0.9-2.9-2.2c-0.4-1.6,0.5-3.2,2.1-3.7l12.7-3.4c1.6-0.4,3.2,0.5,3.7,2.1
					c0.4,1.6-0.5,3.2-2.1,3.7l-12.7,3.4C375,156.6,374.8,156.7,374.5,156.7z"/>
			</g>
			<g>
				<path class="st3" d="M355.8,267.1c-0.6,0-1.2-0.2-1.8-0.6l-10.3-7.5c-1.3-1-1.6-2.8-0.7-4.2c1-1.3,2.8-1.6,4.2-0.7l10.3,7.5
					c1.3,1,1.6,2.8,0.7,4.2C357.6,266.7,356.7,267.1,355.8,267.1z"/>
			</g>
			<g>
				<path class="st5" d="M144.5,251.9c-0.9,0-1.9-0.4-2.4-1.3c-1-1.3-0.7-3.2,0.7-4.2l10.6-7.6c1.3-1,3.2-0.7,4.2,0.7
					c1,1.3,0.7,3.2-0.7,4.2l-10.6,7.6C145.7,251.7,145.1,251.9,144.5,251.9z"/>
			</g>
			<g>
				<path class="st5" d="M240.1,89.2c-1.4,0-2.6-1-2.9-2.4l-3.6-16.6c-0.3-1.6,0.7-3.2,2.3-3.6c1.6-0.3,3.2,0.7,3.6,2.3l3.6,16.6
					c0.3,1.6-0.7,3.2-2.3,3.6C240.5,89.1,240.3,89.2,240.1,89.2z"/>
			</g>
			<g>
				<path class="st3" d="M112.8,196.2c-1.3,0-2.5-0.8-2.9-2.1c-0.5-1.6,0.4-3.3,2-3.8l12.7-4c1.6-0.5,3.3,0.4,3.8,2
					c0.5,1.6-0.4,3.3-2,3.8l-12.7,4C113.4,196.1,113.1,196.2,112.8,196.2z"/>
			</g>
			<g>
				<path class="st5" d="M381.8,216.2c-0.2,0-0.4,0-0.6-0.1l-11.3-2.2c-1.6-0.3-2.7-1.9-2.4-3.5c0.3-1.6,1.9-2.7,3.5-2.4l11.3,2.2
					c1.6,0.3,2.7,1.9,2.4,3.5C384.5,215.2,383.2,216.2,381.8,216.2z"/>
			</g>
			<g>
				<path class="st8" d="M203.9,142.1c-2.9,0.7-5.3,0.4-7.3-0.8c-2-1.2-3.3-3.2-3.9-6c-0.7-2.9-0.5-5.4,0.7-7.3
					c1.1-1.9,3.1-3.2,5.8-3.8c2.6-0.6,4.8-0.4,6.5,0.6c1.7,1,2.9,2.8,3.5,5.4l0.6,2.7l-10.7,2.5c0.3,1,0.8,1.6,1.6,2
					c0.8,0.4,1.8,0.5,2.9,0.2c1.1-0.2,2-0.6,2.8-1c0.8-0.4,1.7-1,2.6-1.7l1,4.3c-0.8,0.7-1.7,1.3-2.7,1.7
					C206.5,141.4,205.3,141.8,203.9,142.1z M200.4,128.3c-0.7,0.2-1.2,0.5-1.6,1.1c-0.4,0.6-0.5,1.3-0.4,2.3l5.2-1.2
					c-0.2-0.8-0.6-1.5-1.2-1.8C201.8,128.2,201.1,128.1,200.4,128.3z"/>
			</g>
			<g>
				<path class="st8" d="M235,110.6c0.5,0,1,0.1,1.5,0.3l0.3,0.1l-1,5.8c-0.5-0.2-1.2-0.3-2.1-0.4c-1.3-0.1-2.3,0.1-3,0.7
					c-0.7,0.6-1,1.4-1.1,2.6l-0.7,8.8l-6.1-0.5l1.5-17.8l4.6,0.4l0.7,2.9l0.3,0c0.6-0.9,1.4-1.6,2.3-2.1
					C233.1,110.8,234.1,110.6,235,110.6z"/>
			</g>
			<g>
				<path class="st8" d="M261.7,119.6c0.5-0.1,1-0.2,1.5-0.2l0.4,0l0.5,5.8c-0.5,0-1.2,0-2.1,0.2c-1.3,0.2-2.2,0.7-2.7,1.4
					c-0.5,0.7-0.6,1.6-0.4,2.8l1.6,8.6l-6.1,1.1l-3.3-17.6l4.5-0.8l1.5,2.6l0.3-0.1c0.3-1,0.9-1.9,1.7-2.7
					C259.9,120.2,260.7,119.7,261.7,119.6z"/>
			</g>
			<g>
				<path class="st8" d="M324.6,121.2c0.5,0,1,0,1.5,0.1l0.3,0.1l-0.4,5.8c-0.5-0.1-1.2-0.2-2.1-0.1c-1.3,0-2.3,0.4-2.9,1
					c-0.6,0.6-0.9,1.5-0.8,2.7l0.3,8.8l-6.2,0.2l-0.6-17.9l4.6-0.1l1.1,2.8l0.3,0c0.5-1,1.2-1.7,2.1-2.4
					C322.7,121.6,323.6,121.3,324.6,121.2z"/>
			</g>
			<g>
				<path class="st8" d="M298.2,121.5c-0.3,4.1-1.2,7-2.7,8.8c-1.5,1.8-3.7,2.6-6.5,2.4c-2.7-0.2-4.7-1.3-6-3.4
					c-1.3-2.1-1.7-5.1-1.5-9c0.3-4.1,1.2-7,2.7-8.8c1.5-1.8,3.7-2.6,6.5-2.4c2.7,0.2,4.7,1.3,6,3.4
					C298,114.6,298.5,117.6,298.2,121.5z M287.8,120.8c-0.2,2.6-0.2,4.4,0.1,5.4c0.3,1,0.8,1.5,1.5,1.6c0.8,0.1,1.4-0.4,1.8-1.4
					c0.4-1,0.7-2.7,0.9-5.3c0.2-2.5,0.1-4.3-0.1-5.4c-0.3-1-0.8-1.6-1.5-1.7c-0.8-0.1-1.3,0.4-1.7,1.4
					C288.2,116.4,287.9,118.2,287.8,120.8z"/>
			</g>
		</g>
	</g>
</g>
<g id="Designed_By_Freepik">
	<g>
		<g>
			<path class="st12" d="M180.3,483.9v-0.2c-0.2,0.2-0.4,0.5-0.6,0.6c-0.2,0.2-0.4,0.3-0.7,0.4c-0.2,0.1-0.5,0.1-0.8,0.1
				c-0.4,0-0.7-0.1-1.1-0.2c-0.3-0.2-0.6-0.4-0.9-0.7c-0.2-0.3-0.4-0.7-0.5-1.1c-0.1-0.4-0.2-0.9-0.2-1.3c0-1,0.2-1.8,0.7-2.4
				c0.5-0.6,1.1-0.8,2-0.8c0.5,0,0.9,0.1,1.2,0.2c0.3,0.2,0.6,0.4,0.9,0.7v-2.4c0-0.3,0.1-0.6,0.2-0.8c0.1-0.2,0.3-0.3,0.6-0.3
				c0.2,0,0.4,0.1,0.6,0.2c0.1,0.2,0.2,0.4,0.2,0.7v7.1c0,0.3-0.1,0.5-0.2,0.7c-0.1,0.2-0.3,0.2-0.6,0.2c-0.2,0-0.4-0.1-0.5-0.2
				C180.4,484.5,180.3,484.2,180.3,483.9 M177.1,481.5c0,0.4,0.1,0.8,0.2,1.1c0.1,0.3,0.3,0.5,0.6,0.7c0.2,0.2,0.5,0.2,0.8,0.2
				c0.3,0,0.5-0.1,0.8-0.2c0.2-0.1,0.4-0.4,0.6-0.7c0.1-0.3,0.2-0.7,0.2-1.1c0-0.4-0.1-0.8-0.2-1.1c-0.1-0.3-0.3-0.5-0.6-0.7
				c-0.2-0.2-0.5-0.2-0.8-0.2c-0.3,0-0.6,0.1-0.8,0.3c-0.2,0.2-0.4,0.4-0.5,0.7C177.2,480.8,177.1,481.1,177.1,481.5"/>
			<path class="st12" d="M187.5,482h-3.2c0,0.4,0.1,0.7,0.2,1c0.1,0.3,0.3,0.5,0.6,0.6c0.2,0.1,0.5,0.2,0.8,0.2c0.2,0,0.4,0,0.5-0.1
				c0.2,0,0.3-0.1,0.5-0.2c0.2-0.1,0.3-0.2,0.4-0.3c0.1-0.1,0.3-0.3,0.5-0.5c0.1-0.1,0.2-0.1,0.4-0.1c0.2,0,0.3,0,0.4,0.1
				c0.1,0.1,0.2,0.2,0.2,0.4c0,0.1-0.1,0.3-0.2,0.5c-0.1,0.2-0.3,0.4-0.5,0.6c-0.2,0.2-0.5,0.3-0.9,0.4c-0.4,0.1-0.8,0.2-1.2,0.2
				c-1,0-1.9-0.3-2.4-0.9c-0.6-0.6-0.9-1.4-0.9-2.4c0-0.5,0.1-0.9,0.2-1.3c0.1-0.4,0.4-0.8,0.6-1.1c0.3-0.3,0.6-0.5,1-0.7
				c0.4-0.2,0.8-0.2,1.3-0.2c0.6,0,1.2,0.1,1.6,0.4c0.5,0.3,0.8,0.6,1,1c0.2,0.4,0.3,0.9,0.3,1.3c0,0.4-0.1,0.7-0.3,0.8
				C188.2,481.9,187.9,482,187.5,482 M184.3,481h2.9c0-0.6-0.2-1-0.4-1.2c-0.3-0.3-0.6-0.4-1-0.4c-0.4,0-0.7,0.1-1,0.4
				C184.5,480.1,184.3,480.5,184.3,481"/>
			<path class="st12" d="M194.8,482.7c0,0.4-0.1,0.8-0.3,1.1c-0.2,0.3-0.5,0.6-1,0.7c-0.4,0.2-0.9,0.2-1.6,0.2
				c-0.6,0-1.1-0.1-1.5-0.3c-0.4-0.2-0.7-0.4-0.9-0.7c-0.2-0.3-0.3-0.5-0.3-0.8c0-0.2,0.1-0.3,0.2-0.5c0.1-0.1,0.3-0.2,0.5-0.2
				c0.2,0,0.3,0,0.4,0.1c0.1,0.1,0.2,0.2,0.3,0.3c0.2,0.3,0.4,0.5,0.6,0.6c0.2,0.1,0.5,0.2,0.9,0.2c0.3,0,0.6-0.1,0.8-0.2
				c0.2-0.1,0.3-0.3,0.3-0.5c0-0.3-0.1-0.5-0.3-0.6c-0.2-0.1-0.6-0.3-1.1-0.4c-0.6-0.1-1-0.3-1.4-0.4c-0.4-0.2-0.6-0.4-0.8-0.6
				c-0.2-0.2-0.3-0.6-0.3-0.9c0-0.3,0.1-0.6,0.3-0.9c0.2-0.3,0.5-0.5,0.9-0.7c0.4-0.2,0.8-0.3,1.4-0.3c0.4,0,0.8,0,1.1,0.1
				c0.3,0.1,0.6,0.2,0.8,0.4c0.2,0.1,0.4,0.3,0.5,0.5c0.1,0.2,0.2,0.4,0.2,0.5c0,0.2-0.1,0.3-0.2,0.5c-0.1,0.1-0.3,0.2-0.5,0.2
				c-0.2,0-0.3,0-0.4-0.1c-0.1-0.1-0.2-0.2-0.4-0.4c-0.1-0.2-0.3-0.3-0.4-0.4c-0.2-0.1-0.4-0.1-0.7-0.1c-0.3,0-0.5,0.1-0.7,0.2
				c-0.2,0.1-0.3,0.3-0.3,0.5c0,0.2,0.1,0.3,0.2,0.4c0.1,0.1,0.3,0.2,0.6,0.3c0.2,0.1,0.6,0.2,1,0.3c0.5,0.1,0.9,0.3,1.2,0.4
				c0.3,0.2,0.6,0.4,0.7,0.6C194.8,482.2,194.8,482.4,194.8,482.7"/>
			<path class="st12" d="M196.5,477.5c-0.2,0-0.4-0.1-0.6-0.2c-0.2-0.1-0.2-0.3-0.2-0.6c0-0.2,0.1-0.4,0.2-0.6
				c0.2-0.1,0.4-0.2,0.6-0.2c0.2,0,0.4,0.1,0.6,0.2c0.2,0.1,0.2,0.3,0.2,0.6c0,0.2-0.1,0.4-0.2,0.6
				C196.9,477.4,196.7,477.5,196.5,477.5 M197.3,479.2v4.7c0,0.3-0.1,0.6-0.2,0.7c-0.2,0.2-0.3,0.2-0.6,0.2c-0.2,0-0.4-0.1-0.6-0.3
				c-0.1-0.2-0.2-0.4-0.2-0.7v-4.6c0-0.3,0.1-0.6,0.2-0.7c0.1-0.2,0.3-0.2,0.6-0.2c0.2,0,0.4,0.1,0.6,0.2
				C197.2,478.7,197.3,478.9,197.3,479.2"/>
			<path class="st12" d="M204.4,479.5v4.7c0,0.5-0.1,1-0.2,1.4c-0.1,0.4-0.3,0.7-0.6,1c-0.3,0.3-0.6,0.4-1,0.6
				c-0.4,0.1-0.9,0.2-1.5,0.2c-0.6,0-1.1-0.1-1.5-0.2c-0.4-0.2-0.8-0.4-1-0.6c-0.2-0.2-0.4-0.5-0.4-0.8c0-0.2,0.1-0.4,0.2-0.5
				c0.1-0.1,0.3-0.2,0.5-0.2c0.2,0,0.4,0.1,0.6,0.3c0.1,0.1,0.2,0.2,0.3,0.3c0.1,0.1,0.2,0.2,0.3,0.3c0.1,0.1,0.2,0.1,0.4,0.2
				c0.2,0,0.3,0.1,0.5,0.1c0.4,0,0.7-0.1,1-0.2c0.2-0.1,0.4-0.3,0.5-0.5c0.1-0.2,0.1-0.4,0.2-0.7c0-0.2,0-0.6,0-1.2
				c-0.2,0.3-0.5,0.6-0.9,0.8c-0.3,0.2-0.7,0.3-1.2,0.3c-0.5,0-1-0.1-1.4-0.4c-0.4-0.3-0.7-0.7-0.9-1.2c-0.2-0.5-0.3-1.1-0.3-1.7
				c0-0.5,0.1-0.9,0.2-1.3c0.1-0.4,0.3-0.7,0.6-1c0.2-0.3,0.5-0.5,0.8-0.6c0.3-0.1,0.7-0.2,1.1-0.2c0.5,0,0.9,0.1,1.2,0.3
				c0.3,0.2,0.6,0.5,0.9,0.8v-0.2c0-0.3,0.1-0.5,0.2-0.7c0.1-0.2,0.3-0.2,0.5-0.2c0.3,0,0.5,0.1,0.6,0.3
				C204.3,478.8,204.4,479.1,204.4,479.5 M199.7,481.5c0,0.7,0.1,1.2,0.4,1.5c0.3,0.3,0.7,0.5,1.1,0.5c0.3,0,0.5-0.1,0.8-0.2
				c0.2-0.1,0.4-0.4,0.6-0.7c0.1-0.3,0.2-0.6,0.2-1.1c0-0.7-0.1-1.2-0.4-1.5c-0.3-0.4-0.7-0.6-1.1-0.6c-0.5,0-0.8,0.2-1.1,0.5
				C199.8,480.4,199.7,480.9,199.7,481.5"/>
			<path class="st12" d="M207,479.2v0.2c0.3-0.4,0.6-0.7,0.9-0.8c0.3-0.2,0.7-0.3,1.2-0.3c0.4,0,0.8,0.1,1.1,0.3
				c0.3,0.2,0.6,0.4,0.8,0.8c0.1,0.2,0.2,0.4,0.2,0.6c0,0.2,0,0.5,0,0.9v3c0,0.3-0.1,0.6-0.2,0.7c-0.1,0.2-0.3,0.2-0.6,0.2
				c-0.2,0-0.4-0.1-0.6-0.3c-0.2-0.2-0.2-0.4-0.2-0.7v-2.7c0-0.5-0.1-0.9-0.2-1.2c-0.1-0.3-0.4-0.4-0.9-0.4c-0.3,0-0.6,0.1-0.8,0.3
				c-0.2,0.2-0.4,0.4-0.5,0.7c-0.1,0.2-0.1,0.7-0.1,1.4v2c0,0.3-0.1,0.6-0.2,0.7c-0.2,0.2-0.3,0.2-0.6,0.2c-0.2,0-0.4-0.1-0.6-0.3
				c-0.2-0.2-0.2-0.4-0.2-0.7v-4.7c0-0.3,0.1-0.5,0.2-0.7c0.1-0.2,0.3-0.2,0.6-0.2c0.1,0,0.3,0,0.4,0.1c0.1,0.1,0.2,0.2,0.3,0.3
				C206.9,478.8,207,479,207,479.2"/>
			<path class="st12" d="M216.8,482h-3.2c0,0.4,0.1,0.7,0.2,1c0.1,0.3,0.3,0.5,0.6,0.6c0.2,0.1,0.5,0.2,0.8,0.2c0.2,0,0.4,0,0.5-0.1
				c0.2,0,0.3-0.1,0.5-0.2c0.1-0.1,0.3-0.2,0.4-0.3c0.1-0.1,0.3-0.3,0.5-0.5c0.1-0.1,0.2-0.1,0.4-0.1c0.2,0,0.3,0,0.4,0.1
				c0.1,0.1,0.2,0.2,0.2,0.4c0,0.1-0.1,0.3-0.2,0.5c-0.1,0.2-0.3,0.4-0.5,0.6c-0.2,0.2-0.5,0.3-0.9,0.4c-0.3,0.1-0.8,0.2-1.2,0.2
				c-1,0-1.9-0.3-2.4-0.9c-0.6-0.6-0.9-1.4-0.9-2.4c0-0.5,0.1-0.9,0.2-1.3c0.1-0.4,0.4-0.8,0.6-1.1c0.3-0.3,0.6-0.5,1-0.7
				c0.4-0.2,0.8-0.2,1.3-0.2c0.6,0,1.2,0.1,1.6,0.4c0.5,0.3,0.8,0.6,1,1c0.2,0.4,0.3,0.9,0.3,1.3c0,0.4-0.1,0.7-0.4,0.8
				C217.6,481.9,217.3,482,216.8,482 M213.7,481h2.9c0-0.6-0.2-1-0.4-1.2c-0.3-0.3-0.6-0.4-1-0.4c-0.4,0-0.7,0.1-1,0.4
				C213.9,480.1,213.7,480.5,213.7,481"/>
			<path class="st12" d="M223.4,483.9v-0.2c-0.2,0.2-0.4,0.5-0.6,0.6c-0.2,0.2-0.4,0.3-0.7,0.4c-0.2,0.1-0.5,0.1-0.8,0.1
				c-0.4,0-0.7-0.1-1.1-0.2c-0.3-0.2-0.6-0.4-0.9-0.7c-0.2-0.3-0.4-0.7-0.5-1.1c-0.1-0.4-0.2-0.9-0.2-1.3c0-1,0.2-1.8,0.7-2.4
				c0.5-0.6,1.1-0.8,2-0.8c0.5,0,0.9,0.1,1.2,0.2c0.3,0.2,0.6,0.4,0.9,0.7v-2.4c0-0.3,0.1-0.6,0.2-0.8c0.1-0.2,0.3-0.3,0.6-0.3
				c0.2,0,0.4,0.1,0.6,0.2c0.1,0.2,0.2,0.4,0.2,0.7v7.1c0,0.3-0.1,0.5-0.2,0.7c-0.1,0.2-0.3,0.2-0.6,0.2c-0.2,0-0.4-0.1-0.5-0.2
				C223.5,484.5,223.4,484.2,223.4,483.9 M220.2,481.5c0,0.4,0.1,0.8,0.2,1.1c0.1,0.3,0.3,0.5,0.6,0.7c0.2,0.2,0.5,0.2,0.8,0.2
				c0.3,0,0.5-0.1,0.8-0.2c0.2-0.1,0.4-0.4,0.6-0.7c0.1-0.3,0.2-0.7,0.2-1.1c0-0.4-0.1-0.8-0.2-1.1c-0.1-0.3-0.3-0.5-0.6-0.7
				c-0.2-0.2-0.5-0.2-0.8-0.2c-0.3,0-0.6,0.1-0.8,0.3c-0.2,0.2-0.4,0.4-0.5,0.7C220.3,480.8,220.2,481.1,220.2,481.5"/>
			<path class="st12" d="M230.1,476.8v2.5c0.3-0.3,0.6-0.6,0.9-0.7c0.3-0.2,0.7-0.3,1.2-0.3c0.5,0,1,0.1,1.4,0.4
				c0.4,0.3,0.7,0.6,0.9,1.1c0.2,0.5,0.3,1.1,0.3,1.7c0,0.5-0.1,0.9-0.2,1.4c-0.1,0.4-0.3,0.8-0.5,1.1c-0.2,0.3-0.5,0.5-0.9,0.7
				c-0.3,0.2-0.7,0.2-1.1,0.2c-0.2,0-0.5,0-0.7-0.1c-0.2-0.1-0.4-0.1-0.6-0.2c-0.2-0.1-0.3-0.2-0.4-0.3c-0.1-0.1-0.3-0.3-0.4-0.5
				v0.2c0,0.3-0.1,0.5-0.2,0.7c-0.1,0.2-0.3,0.2-0.6,0.2c-0.2,0-0.4-0.1-0.5-0.2c-0.1-0.2-0.2-0.4-0.2-0.7v-7.1
				c0-0.3,0.1-0.6,0.2-0.7c0.1-0.2,0.3-0.3,0.6-0.3c0.2,0,0.4,0.1,0.6,0.2C230,476.3,230.1,476.5,230.1,476.8 M230.1,481.6
				c0,0.6,0.1,1.1,0.4,1.5c0.3,0.3,0.7,0.5,1.2,0.5c0.4,0,0.8-0.2,1.1-0.5c0.3-0.4,0.4-0.9,0.4-1.5c0-0.4-0.1-0.8-0.2-1.1
				c-0.1-0.3-0.3-0.5-0.5-0.7c-0.2-0.2-0.5-0.3-0.8-0.3c-0.3,0-0.6,0.1-0.8,0.3c-0.2,0.2-0.4,0.4-0.6,0.7
				C230.2,480.8,230.1,481.2,230.1,481.6"/>
			<path class="st12" d="M237,485.1l0.1-0.4l-2-5c-0.1-0.3-0.2-0.5-0.2-0.6c0-0.1,0-0.3,0.1-0.4c0.1-0.1,0.2-0.2,0.3-0.3
				c0.1-0.1,0.3-0.1,0.4-0.1c0.2,0,0.4,0.1,0.5,0.2c0.1,0.1,0.2,0.4,0.3,0.6l1.4,4l1.3-3.7c0.1-0.3,0.2-0.5,0.3-0.7
				c0.1-0.2,0.2-0.3,0.3-0.3c0.1-0.1,0.2-0.1,0.4-0.1c0.1,0,0.2,0,0.4,0.1c0.1,0.1,0.2,0.2,0.3,0.3c0.1,0.1,0.1,0.2,0.1,0.3
				c0,0.1,0,0.2-0.1,0.3c0,0.1-0.1,0.3-0.1,0.4l-2.1,5.5c-0.2,0.5-0.4,0.9-0.5,1.1c-0.2,0.3-0.4,0.5-0.7,0.6
				c-0.3,0.1-0.7,0.2-1.2,0.2c-0.5,0-0.8-0.1-1.1-0.2c-0.2-0.1-0.4-0.3-0.4-0.6c0-0.2,0.1-0.3,0.2-0.4c0.1-0.1,0.3-0.2,0.5-0.2
				c0.1,0,0.2,0,0.3,0c0.1,0,0.2,0,0.3,0c0.2,0,0.3,0,0.4-0.1c0.1-0.1,0.2-0.2,0.3-0.3C236.8,485.5,236.9,485.3,237,485.1"/>
			<path class="st12" d="M260.4,478.4h0.4v-0.5c0-0.5,0.1-0.9,0.2-1.2c0.1-0.3,0.3-0.5,0.7-0.7c0.3-0.1,0.7-0.2,1.3-0.2
				c1,0,1.4,0.2,1.4,0.7c0,0.1,0,0.3-0.2,0.4c-0.1,0.1-0.2,0.2-0.3,0.2c-0.1,0-0.2,0-0.3,0c-0.1,0-0.3,0-0.4,0
				c-0.3,0-0.5,0.1-0.6,0.3c-0.1,0.2-0.1,0.4-0.1,0.7v0.4h0.4c0.6,0,0.9,0.2,0.9,0.6c0,0.3-0.1,0.4-0.2,0.5
				c-0.2,0.1-0.4,0.1-0.7,0.1h-0.4v4.3c0,0.3-0.1,0.6-0.2,0.7c-0.2,0.2-0.3,0.3-0.6,0.3c-0.2,0-0.4-0.1-0.6-0.3
				c-0.2-0.2-0.2-0.4-0.2-0.7v-4.3h-0.4c-0.2,0-0.4-0.1-0.6-0.2c-0.1-0.1-0.2-0.2-0.2-0.4C259.6,478.6,259.9,478.4,260.4,478.4"/>
			<path class="st12" d="M265.7,482.5v1.4c0,0.3-0.1,0.6-0.2,0.7c-0.2,0.2-0.3,0.2-0.6,0.2c-0.2,0-0.4-0.1-0.6-0.3
				c-0.1-0.2-0.2-0.4-0.2-0.7v-4.5c0-0.7,0.3-1.1,0.8-1.1c0.3,0,0.5,0.1,0.6,0.3c0.1,0.2,0.2,0.4,0.2,0.8c0.2-0.3,0.4-0.6,0.6-0.8
				c0.2-0.2,0.5-0.3,0.8-0.3c0.3,0,0.7,0.1,1,0.3c0.3,0.2,0.5,0.4,0.5,0.7c0,0.2-0.1,0.4-0.2,0.5c-0.1,0.1-0.3,0.2-0.4,0.2
				c-0.1,0-0.2,0-0.4-0.1c-0.2-0.1-0.4-0.1-0.6-0.1c-0.2,0-0.4,0.1-0.6,0.2c-0.2,0.1-0.3,0.3-0.4,0.6c-0.1,0.2-0.1,0.5-0.2,0.9
				C265.8,481.6,265.7,482,265.7,482.5"/>
			<path class="st12" d="M273.2,482H270c0,0.4,0.1,0.7,0.2,1c0.1,0.3,0.3,0.5,0.6,0.6c0.2,0.1,0.5,0.2,0.8,0.2c0.2,0,0.4,0,0.5-0.1
				c0.2,0,0.3-0.1,0.5-0.2c0.2-0.1,0.3-0.2,0.4-0.3c0.1-0.1,0.3-0.3,0.5-0.4c0.1-0.1,0.2-0.1,0.4-0.1c0.2,0,0.3,0,0.4,0.1
				c0.1,0.1,0.2,0.2,0.2,0.4c0,0.1-0.1,0.3-0.2,0.5c-0.1,0.2-0.3,0.4-0.5,0.6c-0.2,0.2-0.5,0.3-0.9,0.4c-0.4,0.1-0.8,0.2-1.2,0.2
				c-1,0-1.9-0.3-2.4-0.9c-0.6-0.6-0.9-1.4-0.9-2.4c0-0.5,0.1-0.9,0.2-1.3c0.1-0.4,0.3-0.8,0.6-1.1c0.3-0.3,0.6-0.5,1-0.7
				c0.4-0.2,0.8-0.2,1.3-0.2c0.6,0,1.2,0.1,1.6,0.4c0.5,0.3,0.8,0.6,1,1c0.2,0.4,0.3,0.9,0.3,1.3c0,0.4-0.1,0.7-0.4,0.8
				C273.9,481.9,273.6,482,273.2,482 M270,481h2.9c0-0.6-0.2-1-0.4-1.2c-0.3-0.3-0.6-0.4-1-0.4c-0.4,0-0.7,0.1-1,0.4
				C270.2,480.1,270.1,480.5,270,481"/>
			<path class="st12" d="M279.9,482h-3.2c0,0.4,0.1,0.7,0.2,1c0.1,0.3,0.3,0.5,0.6,0.6c0.2,0.1,0.5,0.2,0.8,0.2c0.2,0,0.4,0,0.5-0.1
				c0.2,0,0.3-0.1,0.5-0.2c0.2-0.1,0.3-0.2,0.4-0.3c0.1-0.1,0.3-0.3,0.5-0.4c0.1-0.1,0.2-0.1,0.4-0.1c0.2,0,0.3,0,0.4,0.1
				c0.1,0.1,0.2,0.2,0.2,0.4c0,0.1-0.1,0.3-0.2,0.5c-0.1,0.2-0.3,0.4-0.5,0.6c-0.2,0.2-0.5,0.3-0.9,0.4c-0.3,0.1-0.8,0.2-1.2,0.2
				c-1,0-1.8-0.3-2.4-0.9c-0.6-0.6-0.9-1.4-0.9-2.4c0-0.5,0.1-0.9,0.2-1.3c0.1-0.4,0.3-0.8,0.6-1.1c0.3-0.3,0.6-0.5,1-0.7
				c0.4-0.2,0.8-0.2,1.3-0.2c0.6,0,1.2,0.1,1.6,0.4c0.4,0.3,0.8,0.6,1,1c0.2,0.4,0.3,0.9,0.3,1.3c0,0.4-0.1,0.7-0.4,0.8
				C280.7,481.9,280.4,482,279.9,482 M276.8,481h2.9c0-0.6-0.2-1-0.4-1.2c-0.3-0.3-0.6-0.4-1-0.4c-0.4,0-0.7,0.1-1,0.4
				C277,480.1,276.8,480.5,276.8,481"/>
			<path class="st12" d="M283.5,479.2v0.2c0.3-0.4,0.6-0.7,1-0.8c0.3-0.2,0.7-0.3,1.1-0.3c0.5,0,1,0.1,1.4,0.4
				c0.4,0.3,0.7,0.6,1,1.1c0.2,0.5,0.4,1.1,0.4,1.8c0,0.5-0.1,1-0.2,1.4c-0.1,0.4-0.3,0.8-0.6,1c-0.2,0.3-0.5,0.5-0.9,0.7
				c-0.3,0.2-0.7,0.2-1.1,0.2c-0.5,0-0.9-0.1-1.2-0.3c-0.3-0.2-0.6-0.5-0.9-0.8v2.4c0,0.7-0.3,1.1-0.8,1.1c-0.3,0-0.5-0.1-0.6-0.3
				c-0.1-0.2-0.1-0.5-0.1-0.8v-7c0-0.3,0.1-0.5,0.2-0.7c0.1-0.1,0.3-0.2,0.6-0.2c0.2,0,0.4,0.1,0.6,0.2
				C283.4,478.7,283.5,478.9,283.5,479.2 M286.7,481.5c0-0.4-0.1-0.8-0.2-1.1c-0.1-0.3-0.3-0.5-0.5-0.7c-0.2-0.2-0.5-0.2-0.8-0.2
				c-0.4,0-0.8,0.2-1.1,0.5c-0.3,0.4-0.5,0.9-0.5,1.6c0,0.6,0.2,1.1,0.5,1.5c0.3,0.4,0.7,0.5,1.1,0.5c0.3,0,0.5-0.1,0.7-0.2
				c0.2-0.2,0.4-0.4,0.6-0.7C286.6,482.3,286.7,482,286.7,481.5"/>
			<path class="st12" d="M289.9,477.5c-0.2,0-0.4-0.1-0.6-0.2c-0.2-0.1-0.2-0.3-0.2-0.6c0-0.2,0.1-0.4,0.2-0.6
				c0.2-0.1,0.4-0.2,0.6-0.2c0.2,0,0.4,0.1,0.6,0.2c0.2,0.1,0.2,0.3,0.2,0.6c0,0.2-0.1,0.4-0.2,0.6
				C290.3,477.4,290.1,477.5,289.9,477.5 M290.7,479.2v4.7c0,0.3-0.1,0.6-0.2,0.7c-0.2,0.2-0.4,0.3-0.6,0.3c-0.2,0-0.4-0.1-0.6-0.3
				c-0.1-0.2-0.2-0.4-0.2-0.7v-4.6c0-0.3,0.1-0.6,0.2-0.7c0.2-0.2,0.3-0.2,0.6-0.2c0.2,0,0.4,0.1,0.6,0.2
				C290.7,478.7,290.7,478.9,290.7,479.2"/>
			<path class="st12" d="M296,484.1l-1.4-2.4l-0.9,0.8v1.3c0,0.3-0.1,0.6-0.2,0.7c-0.2,0.2-0.4,0.3-0.6,0.3c-0.2,0-0.4-0.1-0.6-0.3
				c-0.1-0.2-0.2-0.4-0.2-0.7V477c0-0.4,0.1-0.6,0.2-0.8c0.1-0.2,0.3-0.3,0.6-0.3c0.2,0,0.4,0.1,0.6,0.3c0.1,0.2,0.2,0.4,0.2,0.8
				v3.9l1.8-1.9c0.2-0.2,0.4-0.4,0.5-0.5c0.1-0.1,0.3-0.1,0.4-0.1c0.2,0,0.4,0.1,0.5,0.2c0.1,0.1,0.2,0.3,0.2,0.5
				c0,0.2-0.2,0.6-0.7,1l-0.9,0.8l1.7,2.6c0.1,0.2,0.2,0.3,0.3,0.4c0.1,0.1,0.1,0.2,0.1,0.3c0,0.3-0.1,0.5-0.2,0.6
				c-0.1,0.1-0.3,0.2-0.6,0.2c-0.2,0-0.4-0.1-0.5-0.2C296.3,484.6,296.1,484.4,296,484.1"/>
			<path class="st12" d="M299.5,484.9c-0.2,0-0.5-0.1-0.6-0.2c-0.2-0.2-0.3-0.4-0.3-0.7c0-0.2,0.1-0.4,0.3-0.6
				c0.2-0.2,0.4-0.3,0.6-0.3c0.2,0,0.5,0.1,0.6,0.3c0.2,0.2,0.3,0.4,0.3,0.6c0,0.3-0.1,0.5-0.3,0.7
				C299.9,484.8,299.7,484.9,299.5,484.9"/>
			<path class="st12" d="M307.5,482.8c0,0.2-0.1,0.4-0.2,0.6c-0.1,0.2-0.3,0.4-0.6,0.7c-0.2,0.2-0.6,0.4-0.9,0.5
				c-0.4,0.1-0.8,0.2-1.3,0.2c-1,0-1.8-0.3-2.3-0.9c-0.6-0.6-0.8-1.4-0.8-2.3c0-0.7,0.1-1.3,0.4-1.8c0.3-0.5,0.6-0.9,1.1-1.2
				c0.5-0.3,1.1-0.4,1.7-0.4c0.4,0,0.8,0.1,1.2,0.2c0.4,0.1,0.6,0.3,0.9,0.5c0.2,0.2,0.4,0.4,0.6,0.6c0.1,0.2,0.2,0.4,0.2,0.6
				c0,0.2-0.1,0.4-0.2,0.5c-0.1,0.1-0.3,0.2-0.5,0.2c-0.1,0-0.2,0-0.3-0.1c-0.1-0.1-0.2-0.2-0.3-0.3c-0.2-0.3-0.4-0.5-0.6-0.7
				c-0.2-0.2-0.5-0.2-0.8-0.2c-0.5,0-0.9,0.2-1.2,0.6c-0.3,0.4-0.4,0.9-0.4,1.5c0,0.3,0,0.6,0.1,0.8c0.1,0.3,0.2,0.5,0.3,0.7
				c0.1,0.2,0.3,0.3,0.5,0.4c0.2,0.1,0.4,0.1,0.7,0.1c0.3,0,0.6-0.1,0.8-0.2c0.2-0.2,0.4-0.4,0.6-0.7c0.1-0.2,0.2-0.3,0.3-0.4
				c0.1-0.1,0.3-0.2,0.4-0.2c0.2,0,0.4,0.1,0.5,0.2C307.5,482.5,307.5,482.7,307.5,482.8"/>
			<path class="st12" d="M314.5,481.6c0,0.5-0.1,0.9-0.2,1.3c-0.2,0.4-0.4,0.8-0.7,1c-0.3,0.3-0.6,0.5-1,0.7
				c-0.4,0.2-0.8,0.2-1.3,0.2c-0.5,0-0.9-0.1-1.3-0.2c-0.4-0.2-0.7-0.4-1-0.7c-0.3-0.3-0.5-0.6-0.7-1c-0.1-0.4-0.2-0.8-0.2-1.3
				c0-0.5,0.1-0.9,0.2-1.3c0.2-0.4,0.4-0.8,0.6-1c0.3-0.3,0.6-0.5,1-0.7c0.4-0.2,0.8-0.2,1.3-0.2c0.5,0,0.9,0.1,1.3,0.2
				c0.4,0.2,0.7,0.4,1,0.7c0.3,0.3,0.5,0.6,0.6,1C314.5,480.6,314.5,481.1,314.5,481.6 M312.9,481.6c0-0.7-0.1-1.2-0.4-1.5
				c-0.3-0.4-0.7-0.6-1.2-0.6c-0.3,0-0.6,0.1-0.8,0.2c-0.2,0.2-0.4,0.4-0.6,0.7c-0.1,0.3-0.2,0.7-0.2,1.1c0,0.4,0.1,0.8,0.2,1.1
				c0.1,0.3,0.3,0.6,0.6,0.7c0.2,0.2,0.5,0.3,0.8,0.3c0.5,0,0.9-0.2,1.2-0.6C312.8,482.7,312.9,482.2,312.9,481.6"/>
			<path class="st12" d="M320.7,481.7v2.2c0,0.3-0.1,0.6-0.2,0.8c-0.2,0.2-0.4,0.3-0.6,0.3c-0.2,0-0.4-0.1-0.6-0.3
				c-0.2-0.2-0.2-0.4-0.2-0.8v-2.6c0-0.4,0-0.7,0-1c0-0.2-0.1-0.4-0.2-0.6c-0.1-0.1-0.3-0.2-0.6-0.2c-0.5,0-0.9,0.2-1,0.6
				c-0.2,0.4-0.3,0.9-0.3,1.6v2.2c0,0.3-0.1,0.6-0.2,0.8c-0.2,0.2-0.4,0.3-0.6,0.3c-0.2,0-0.4-0.1-0.6-0.3c-0.2-0.2-0.2-0.4-0.2-0.8
				v-4.6c0-0.3,0.1-0.5,0.2-0.7c0.1-0.2,0.3-0.2,0.6-0.2c0.2,0,0.4,0.1,0.6,0.2c0.1,0.1,0.2,0.4,0.2,0.6v0.2
				c0.3-0.3,0.6-0.6,0.9-0.7c0.3-0.2,0.7-0.2,1.1-0.2c0.4,0,0.8,0.1,1,0.2c0.3,0.2,0.5,0.4,0.7,0.7c0.3-0.3,0.6-0.6,0.9-0.7
				c0.3-0.2,0.7-0.2,1-0.2c0.4,0,0.8,0.1,1.1,0.3c0.3,0.2,0.6,0.4,0.7,0.7c0.1,0.3,0.2,0.8,0.2,1.4v3.2c0,0.3-0.1,0.6-0.2,0.8
				c-0.2,0.2-0.4,0.3-0.6,0.3c-0.2,0-0.4-0.1-0.6-0.3c-0.2-0.2-0.2-0.4-0.2-0.8v-2.7c0-0.3,0-0.6,0-0.8c0-0.2-0.1-0.4-0.2-0.5
				c-0.1-0.1-0.3-0.2-0.6-0.2c-0.2,0-0.4,0.1-0.6,0.2c-0.2,0.1-0.3,0.3-0.5,0.5C320.8,480.5,320.7,481,320.7,481.7"/>
			<path class="st12" d="M245.3,481.2C245.3,481.2,245.3,481.2,245.3,481.2C245.3,481.2,245.3,481.2,245.3,481.2"/>
			<path class="st12" d="M245.4,481.7L245.4,481.7c0-0.1-0.1-0.3-0.1-0.4C245.3,481.4,245.3,481.5,245.4,481.7"/>
			<path class="st12" d="M245.9,483.2C245.9,483.2,245.9,483.2,245.9,483.2C245.9,483.2,245.9,483.2,245.9,483.2"/>
			<path class="st12" d="M245.8,483.1C245.8,483.1,245.8,483,245.8,483.1C245.8,483,245.8,483.1,245.8,483.1"/>
			<path class="st12" d="M245.5,482.3c0.1,0.3,0.2,0.5,0.3,0.7C245.7,482.8,245.6,482.5,245.5,482.3L245.5,482.3z"/>
			<path class="st12" d="M251.5,475c0.3,0,0.5,0,0.8,0.1l0.1-0.5c0,0-0.7-0.2-1.7-0.1l-0.1-0.3c0.3-0.1,0.5-0.3,0.5-0.6
				c0-0.4-0.3-0.7-0.7-0.7c-0.4,0-0.7,0.3-0.7,0.7c0,0.3,0.2,0.6,0.5,0.6l0.1,0.3c-1,0.1-1.8,0.5-1.8,0.5l0.1,0.4
				c0.6-0.2,1.2-0.3,1.6-0.4C250.9,475,251.3,475,251.5,475"/>
			<path class="st12" d="M245.9,477.4L245.9,477.4C245.9,477.3,245.9,477.3,245.9,477.4l-0.1-0.2l-0.3-0.2c0,0-0.5,0.5-0.9,1.3
				c0,0,0-0.1-0.1-0.1c-0.1-0.1-0.3-0.2-0.5-0.2h0c-0.1,0-0.2,0-0.3-0.1c0.1-0.1,0.1-0.2,0.1-0.3c0-0.2-0.2-0.4-0.4-0.4
				c-0.2,0-0.4,0.2-0.4,0.4c0,0.2,0.2,0.4,0.4,0.4c0,0,0.1,0,0.1,0c0.1,0.1,0.3,0.2,0.5,0.2c0.1,0,0.2,0,0.3,0.1
				c0.1,0.1,0.1,0.2,0.1,0.3c0,0,0,0,0,0c-0.3,0.7-0.2,1.7-0.2,1.7l0.7,0c0-0.3,0.1-0.9,0.2-1.4C245.4,478,245.9,477.4,245.9,477.4"
				/>
			<path class="st12" d="M257.3,475.5c-0.2,0-0.4,0.2-0.4,0.4c0,0,0,0.1,0,0.1c-0.1,0.1-0.2,0.3-0.2,0.5c0,0.1,0,0.2-0.1,0.3
				c-0.1,0-0.1,0.1-0.2,0.1c-0.5-0.7-1.1-1.1-1.1-1.1l-0.5,0.5c0.4,0.3,0.7,0.7,1.1,1.2c0.2,0.4,0.5,0.8,0.7,1.3l0.6-0.3
				c0,0-0.3-0.7-0.7-1.4c0.1,0,0.1-0.1,0.2-0.1c0.1-0.1,0.2-0.3,0.2-0.5c0-0.1,0-0.2,0.1-0.3c0.1,0.1,0.2,0.1,0.3,0.1
				c0.2,0,0.4-0.2,0.4-0.4C257.7,475.7,257.5,475.5,257.3,475.5"/>
			<path class="st12" d="M255.6,481.3c-0.9,0.4-2.3,1-4.2,1.3c-0.7,0.1-1.5,0.1-2.1,0.1c-0.9,0-1.6-0.1-2.2-0.1
				c-0.7-0.1-1.2-0.2-1.5-0.3c0.1,0.2,0.2,0.5,0.3,0.7c0,0,0,0,0,0c0,0,0,0.1,0,0.1c0,0,0,0.1,0,0.1c0,0,0,0,0,0
				c0.2,0.4,0.4,0.7,0.7,1c0.9,1,1.8,1.1,1.8,1.1l0,0l0,0c0,0,0.8,0.3,2.1,0.3c1.2,0,2.4-0.2,3.5-0.7c0.8-0.4,1.6-1.1,2-1.7
				c0.3-0.5,0.5-0.9,0.7-1.4c0.1-0.3,0.1-0.7,0.1-1.1C256.6,480.8,256.2,481,255.6,481.3"/>
			<path class="st12" d="M246.2,477.6c0,0-0.4,0.6-0.7,1.4c-0.2,0.6-0.2,1.5-0.2,1.5v0c0,0.2,0,0.4,0,0.6c0,0,0,0,0,0
				c0,0,0,0.1,0,0.1c0,0.1,0,0.3,0.1,0.4c0.4,0.1,3,0.7,6,0.3c1.8-0.3,3.2-0.8,4.1-1.2c0.7-0.3,1.2-0.6,1.3-0.8
				c-0.2-0.6-0.7-1.7-1.1-2.3c-1.3-1.8-2.6-2.3-3.3-2.4c-0.3,0-0.5-0.1-0.8-0.1c-0.3,0-0.6,0-1.1,0.1c-0.5,0-1,0.2-1.6,0.4
				c-0.8,0.3-1.6,0.7-2.2,1.3l0,0C246.6,477.1,246.4,477.3,246.2,477.6 M253.8,477.2c0.6,0,1.1,0.5,1.1,1.1c0,0.6-0.5,1.1-1.1,1.1
				c-0.6,0-1.1-0.5-1.1-1.1C252.7,477.6,253.2,477.2,253.8,477.2 M248.7,477.1c1,0,1.8,0.8,1.8,1.8c0,1-0.8,1.8-1.8,1.8
				c-1,0-1.8-0.8-1.8-1.8C246.9,477.9,247.7,477.1,248.7,477.1"/>
		</g>
	</g>
</g>
</svg>
